<?xml version="1.0" standalone="no"?><!DOCTYPE svg PUBLIC "-//W3C//DTD SVG 1.1//EN" "http://www.w3.org/Graphics/SVG/1.1/DTD/svg11.dtd"><svg t="1731576638904" class="icon" viewBox="0 0 1024 1024" version="1.1" xmlns="http://www.w3.org/2000/svg" p-id="1502" width="24" height="24" xmlns:xlink="http://www.w3.org/1999/xlink"><path d="M607.57333332 967.42399999c193.536 0 351.744-158.208 351.744-351.744S801.10933332 263.93599999 607.57333332 263.93599999s-351.744 158.208-351.744 351.744 158.208 351.744 351.744 351.744z m0-653.312c165.888 0 301.568 135.68 301.568 301.568S773.46133332 917.24799999 607.57333332 917.24799999s-301.568-135.68-301.568-301.568 135.68-301.568 301.568-301.568z" p-id="1503" fill="#626262"></path><path d="M416.42666668 765.61066668c193.536 0 351.744-158.208 351.744-351.744S609.96266668 62.12266668 416.42666668 62.12266668 64.68266668 220.33066668 64.68266668 413.86666668s158.208 351.744 351.744 351.744z m0-653.312c165.888 0 301.568 135.68 301.568 301.568S582.31466668 715.43466668 416.42666668 715.43466668s-301.568-135.68-301.568-301.568 135.68-301.568 301.568-301.568z" p-id="1504" fill="#626262"></path><path d="M277.16065013 672.97101721c0 25.9055398 2.81581955 51.24791567 7.32113081 75.46396374 24.21604807 5.06847518 49.55842395 7.32113082 75.46396375 7.3211308 212.87595743 0 386.89360519-174.01764774 386.89360518-386.89360517 0-25.9055398-2.81581955-51.24791567-7.32113081-75.46396375-24.21604807-5.06847518-49.55842395-7.32113082-75.46396375-7.32113081-212.87595743 0-386.89360519 174.01764774-386.89360518 386.89360519z" p-id="1505" fill="#626262"></path></svg>