<?xml version="1.0" standalone="no"?><!DOCTYPE svg PUBLIC "-//W3C//DTD SVG 1.1//EN" "http://www.w3.org/Graphics/SVG/1.1/DTD/svg11.dtd"><svg t="1731576774074" class="icon" viewBox="0 0 1024 1024" version="1.1" xmlns="http://www.w3.org/2000/svg" p-id="10960" width="24" height="24" xmlns:xlink="http://www.w3.org/1999/xlink"><path d="M650.24 999.424c193.536 0 351.744-158.208 351.744-351.744S843.776 295.936 650.24 295.936s-351.744 158.208-351.744 351.744 158.208 351.744 351.744 351.744z m0-653.312c165.888 0 301.568 135.68 301.568 301.568S816.128 949.248 650.24 949.248s-301.568-135.68-301.568-301.568 135.68-301.568 301.568-301.568z" p-id="10961" fill="#626262"></path><path d="M373.76 722.944c193.536 0 351.744-158.208 351.744-351.744S567.296 19.456 373.76 19.456 22.016 177.664 22.016 371.2s158.208 351.744 351.744 351.744z m0-653.312c165.888 0 301.568 135.68 301.568 301.568S539.648 672.768 373.76 672.768s-301.568-135.68-301.568-301.568 135.68-301.568 301.568-301.568z" p-id="10962" fill="#626262"></path><path d="M318.464 718.336c-5.12-22.528-7.68-45.056-7.68-70.144 0-188.416 151.04-339.456 339.456-339.456 25.088 0 47.616 2.56 70.144 7.68-27.648-168.448-171.008-296.448-347.136-296.448-193.536 0-351.744 158.208-351.744 351.744 0.512 175.616 128.512 321.024 296.96 346.624z" p-id="10963" fill="#626262"></path></svg>