<?xml version="1.0" standalone="no"?><!DOCTYPE svg PUBLIC "-//W3C//DTD SVG 1.1//EN" "http://www.w3.org/Graphics/SVG/1.1/DTD/svg11.dtd"><svg t="1731576752645" class="icon" viewBox="0 0 1024 1024" version="1.1" xmlns="http://www.w3.org/2000/svg" p-id="9873" width="24" height="24" xmlns:xlink="http://www.w3.org/1999/xlink"><path d="M332.8 217.6l352-6.4c147.2-6.4 275.2 108.8 281.6 256 6.4 140.8-96 262.4-236.8 268.8h-12.8l-371.2 12.8c-147.2 0-268.8-115.2-275.2-262.4C64 339.2 185.6 217.6 332.8 217.6z" fill="#D7D7D7" p-id="9874"></path><path d="M352 800c-172.8 0-320-140.8-320-320s140.8-320 320-320c64 0 128 19.2 179.2 57.6l32 25.6-38.4 25.6C448 320 409.6 396.8 409.6 480c0 89.6 44.8 166.4 115.2 211.2l32 25.6-25.6 25.6c-51.2 32-115.2 57.6-179.2 57.6z m0-576c-140.8 0-256 115.2-256 256s115.2 256 256 256c38.4 0 76.8-6.4 108.8-25.6-70.4-57.6-108.8-140.8-108.8-230.4s38.4-172.8 108.8-236.8c-32-12.8-70.4-19.2-108.8-19.2z" fill="#7C7C7C" p-id="9875"></path><path d="M672 800c-64 0-128-19.2-179.2-57.6l-32-25.6 32-25.6c70.4-44.8 115.2-128 115.2-211.2 0-83.2-44.8-166.4-115.2-211.2l-32-25.6 32-25.6c51.2-38.4 115.2-57.6 179.2-57.6 172.8 0 320 140.8 320 320s-147.2 320-320 320z m-108.8-83.2c32 19.2 70.4 25.6 108.8 25.6 140.8 0 256-115.2 256-256s-115.2-256-256-256c-38.4 0-76.8 6.4-108.8 25.6 64 57.6 108.8 147.2 108.8 236.8s-44.8 160-108.8 224z" fill="#7C7C7C" p-id="9876"></path></svg>