<?xml version="1.0" standalone="no"?><!DOCTYPE svg PUBLIC "-//W3C//DTD SVG 1.1//EN" "http://www.w3.org/Graphics/SVG/1.1/DTD/svg11.dtd"><svg t="1731576935789" class="icon" viewBox="0 0 1024 1024" version="1.1" xmlns="http://www.w3.org/2000/svg" p-id="17232" width="24" height="24" xmlns:xlink="http://www.w3.org/1999/xlink"><path d="M511.744 42.688a469.312 469.312 0 1 1 0 938.624 469.312 469.312 0 0 1 0-938.624z m0 256a42.688 42.688 0 0 0-42.688 42.624v128h-128a42.688 42.688 0 0 0 0 85.376l128-0.064v128a42.688 42.688 0 0 0 85.376 0v-128h128a42.688 42.688 0 0 0 0-85.312h-128v-128a42.688 42.688 0 0 0-42.688-42.624z" p-id="17233" fill="#626262"></path></svg>